<mxfile host="app.diagrams.net" modified="2023-06-21T07:42:38.869Z" agent="Mozilla/5.0 (Macintosh; Intel Mac OS X 10_15_7) AppleWebKit/605.1.15 (KHTML, like Gecko) Version/16.5 Safari/605.1.15" etag="TU1_7UdLE7QesefxYgxN" version="21.4.0">
  <diagram name="Seite-1" id="1lOM7LZerqZPnMOpxiHa">
    <mxGraphModel dx="453" dy="380" grid="1" gridSize="10" guides="1" tooltips="1" connect="1" arrows="1" fold="1" page="1" pageScale="1" pageWidth="827" pageHeight="1169" math="0" shadow="0">
      <root>
        <mxCell id="0" />
        <mxCell id="1" parent="0" />
        <mxCell id="12iBxm_VB4zqUITPJ39q-2" value="" style="endArrow=classicThin;html=1;rounded=0;startArrow=oval;startFill=0;endFill=1;strokeColor=#0000FF;" parent="1" edge="1">
          <mxGeometry width="50" height="50" relative="1" as="geometry">
            <mxPoint x="360" y="200" as="sourcePoint" />
            <mxPoint x="280" y="280" as="targetPoint" />
          </mxGeometry>
        </mxCell>
        <mxCell id="uNqrZ6btCF_Ytb-3M43g-1" value="" style="endArrow=classicThin;html=1;rounded=0;endFill=1;startArrow=oval;startFill=0;strokeColor=#0000FF;" parent="1" edge="1">
          <mxGeometry width="50" height="50" relative="1" as="geometry">
            <mxPoint x="280" y="120" as="sourcePoint" />
            <mxPoint x="360" y="200" as="targetPoint" />
          </mxGeometry>
        </mxCell>
        <mxCell id="uNqrZ6btCF_Ytb-3M43g-2" value="" style="endArrow=classicThin;html=1;rounded=0;startArrow=oval;startFill=0;endFill=1;" parent="1" edge="1">
          <mxGeometry width="50" height="50" relative="1" as="geometry">
            <mxPoint x="200" y="200" as="sourcePoint" />
            <mxPoint x="280" y="120" as="targetPoint" />
          </mxGeometry>
        </mxCell>
        <mxCell id="pNoILCVDDTdguSzP9-J5-2" value="" style="endArrow=classicThin;html=1;rounded=0;startArrow=none;startFill=0;endFill=1;" parent="1" edge="1">
          <mxGeometry width="50" height="50" relative="1" as="geometry">
            <mxPoint x="230" y="230" as="sourcePoint" />
            <mxPoint x="200" y="200" as="targetPoint" />
          </mxGeometry>
        </mxCell>
        <mxCell id="pNoILCVDDTdguSzP9-J5-3" value="..." style="text;strokeColor=none;align=center;fillColor=none;html=1;verticalAlign=middle;whiteSpace=wrap;rounded=0;" parent="1" vertex="1">
          <mxGeometry x="210" y="220" width="60" height="30" as="geometry" />
        </mxCell>
        <mxCell id="pNoILCVDDTdguSzP9-J5-4" value="v" style="text;strokeColor=none;align=center;fillColor=none;html=1;verticalAlign=middle;whiteSpace=wrap;rounded=0;" parent="1" vertex="1">
          <mxGeometry x="270" y="100" width="20" height="20" as="geometry" />
        </mxCell>
        <mxCell id="pNoILCVDDTdguSzP9-J5-5" value="w&lt;sub&gt;1&lt;/sub&gt;" style="text;strokeColor=none;align=center;fillColor=none;html=1;verticalAlign=middle;whiteSpace=wrap;rounded=0;" parent="1" vertex="1">
          <mxGeometry x="360" y="190" width="30" height="20" as="geometry" />
        </mxCell>
        <mxCell id="pNoILCVDDTdguSzP9-J5-6" value="w&lt;font size=&quot;1&quot;&gt;&lt;sub&gt;2&lt;/sub&gt;&lt;/font&gt;" style="text;strokeColor=none;align=center;fillColor=none;html=1;verticalAlign=middle;whiteSpace=wrap;rounded=0;" parent="1" vertex="1">
          <mxGeometry x="270" y="280" width="20" height="20" as="geometry" />
        </mxCell>
        <mxCell id="pNoILCVDDTdguSzP9-J5-7" value="w&lt;sub&gt;L-1&lt;/sub&gt;" style="text;strokeColor=none;align=center;fillColor=none;html=1;verticalAlign=middle;whiteSpace=wrap;rounded=0;" parent="1" vertex="1">
          <mxGeometry x="170" y="190" width="30" height="20" as="geometry" />
        </mxCell>
        <mxCell id="pNoILCVDDTdguSzP9-J5-8" value="&lt;font color=&quot;#0000ff&quot;&gt;length 3&lt;/font&gt;&lt;font color=&quot;#ff9933&quot;&gt; &lt;/font&gt;&amp;lt; L" style="text;strokeColor=none;align=center;fillColor=none;html=1;verticalAlign=middle;whiteSpace=wrap;rounded=0;" parent="1" vertex="1">
          <mxGeometry x="320" y="110" width="80" height="30" as="geometry" />
        </mxCell>
        <mxCell id="pNoILCVDDTdguSzP9-J5-1" value="" style="endArrow=none;html=1;rounded=0;startArrow=oval;startFill=0;endFill=0;" parent="1" edge="1">
          <mxGeometry width="50" height="50" relative="1" as="geometry">
            <mxPoint x="280" y="280" as="sourcePoint" />
            <mxPoint x="250" y="250" as="targetPoint" />
          </mxGeometry>
        </mxCell>
        <mxCell id="hrQMiCM1weaFcVrUnJ70-1" value="" style="endArrow=classicThin;html=1;rounded=0;endFill=1;startArrow=oval;startFill=0;exitX=0.5;exitY=0;exitDx=0;exitDy=0;fillColor=#ffe6cc;strokeColor=#0000FF;" edge="1" parent="1" source="pNoILCVDDTdguSzP9-J5-6">
          <mxGeometry width="50" height="50" relative="1" as="geometry">
            <mxPoint x="280" y="120" as="sourcePoint" />
            <mxPoint x="280" y="120" as="targetPoint" />
          </mxGeometry>
        </mxCell>
      </root>
    </mxGraphModel>
  </diagram>
</mxfile>
